<svg width="22" height="21" viewBox="0 0 22 21" fill="none" xmlns="http://www.w3.org/2000/svg">
<path d="M20.9041 6.22695L18.6685 4.87512V0.283502C18.6685 0.138305 18.551 0.0209465 18.406 0.0209465H15.0917C14.9469 0.0209465 14.8293 0.138305 14.8293 0.283502V2.55398L10.6675 0.0377693C10.641 0.0219479 10.612 0.0117341 10.5822 0.00692755C10.5153 -0.00869362 10.4452 0.0023213 10.3863 0.0377693L0.157455 6.22695C0.0789489 6.27421 0.0308838 6.35973 0.0308838 6.45145V8.61698C0.0308838 8.71111 0.0811519 8.79803 0.162662 8.84469C0.244373 8.89155 0.344709 8.89115 0.425818 8.84369L1.9663 7.94307V18.5218H1.23331C1.08832 18.5218 0.970956 18.6392 0.970956 18.7843V20.7374C0.970956 20.8824 1.08832 20.9999 1.23331 20.9999H19.8283C19.9733 20.9999 20.0908 20.8824 20.0908 20.7374V18.7843C20.0908 18.6392 19.9733 18.5218 19.8283 18.5218H19.0953V7.94367L20.636 8.84369C20.6768 8.86752 20.7225 8.87954 20.7684 8.87954C20.8134 8.87954 20.8585 8.86792 20.8989 8.84469C20.9806 8.79803 21.0307 8.71111 21.0307 8.61698V6.45145C21.0307 6.35973 20.9826 6.27421 20.9041 6.22695V6.22695ZM15.3542 0.545857H18.1434V4.55769L15.3542 2.87141V0.545857ZM19.5657 20.4748H1.49587V19.0467H19.5657V20.4748ZM12.8933 18.5218H8.1683V10.3231H12.8933V18.5218ZM18.5704 18.5218H13.4184V10.0605C13.4184 9.91534 13.3008 9.79798 13.1559 9.79798H7.90574C7.76095 9.79798 7.64339 9.91534 7.64339 10.0605V18.5218H2.49121V7.63606L10.5269 2.93769L18.5704 7.63686V18.5218ZM20.5058 8.15976L10.6593 2.40698C10.6184 2.38314 10.5726 2.37113 10.5269 2.37113C10.481 2.37113 10.4354 2.38314 10.3943 2.40698L0.555794 8.15936V6.59925L10.5269 0.566485L20.5058 6.59925V8.15976Z" fill="#31353B"/>
</svg>
