<svg width="97" height="24" viewBox="0 0 97 24" fill="none" xmlns="http://www.w3.org/2000/svg">
<path opacity="0.8" d="M21.9845 16.2064V21.1649C20.182 22.75 15.8749 23.6929 12.6682 23.6929C9.46558 23.6929 0.600952 21.7095 0.600952 12.39C0.600952 3.07051 9.03857 1.06274 12.4424 1.06274C15.8503 1.06274 19.4799 1.68051 21.5821 3.07051V7.43153C21.5821 7.97615 20.8307 7.92738 20.8307 7.43153C20.7814 6.68776 18.7778 2.2292 13.7686 2.32674C8.3611 2.43648 4.70685 6.64305 4.70685 12.1908C4.70685 17.7386 8.25845 22.502 13.6208 22.3517C15.3617 22.3029 17.1765 21.7583 18.0551 21.0348L18.0757 16.2064C18.0757 14.8205 17.2257 14.3246 16.3758 14.3246C15.8215 14.3246 15.8215 13.5321 16.3758 13.5321H23.6843C24.2345 13.5321 24.2345 14.3734 23.6843 14.3246C22.8385 14.3246 21.9845 14.8205 21.9845 16.2064ZM71.2593 7.43559C71.2593 7.98021 70.7092 7.93144 70.7092 7.43559C70.6558 6.69182 68.6562 2.08288 63.647 2.18449C58.2395 2.29016 54.5812 6.64711 54.5812 12.1949C54.5812 17.7427 58.0876 22.6524 63.4458 22.5061C68.804 22.3557 71.3579 17.1046 71.5591 16.4096C71.7603 15.7146 72.1093 15.8162 72.1093 16.3608V20.4252C69.9085 22.0103 65.7492 23.6969 62.5466 23.6969C59.344 23.6969 50.4794 21.7136 50.4794 12.3941C50.4794 3.07051 58.8924 0.843262 62.2962 0.843262C65.7041 0.843262 69.1571 1.68458 71.2635 3.07051V7.43559H71.2593ZM48.5743 1.38788C49.3749 1.38788 49.3749 2.13165 48.5743 2.13165C47.7243 2.13165 46.8744 2.6275 46.8744 4.01343L46.7759 14.8449C46.7759 20.0309 42.5263 23.8433 37.283 23.8433C32.0398 23.8433 27.9462 20.0309 27.9462 14.8449V4.01343C27.9462 2.62343 27.0922 2.13165 26.2423 2.13165C25.4416 2.13165 25.4416 1.38788 26.2423 1.38788H33.6534C34.4541 1.38788 34.4541 2.13165 33.6534 2.13165C32.7994 2.13165 31.9495 2.6275 31.9495 4.01343L31.9413 16.1089C31.9413 19.7667 34.9632 22.7337 38.6585 22.7337C42.3538 22.7337 45.3511 19.023 45.3511 15.3691L45.1705 4.01343C45.1705 2.62343 44.3205 2.13165 43.4665 2.13165C42.67 2.13165 42.67 1.38788 43.4665 1.38788H48.5743ZM95.7469 7.43559C95.7469 7.98021 95.1967 7.93144 95.1967 7.43559C95.1475 6.69182 93.1438 2.08288 88.1346 2.18449C82.7271 2.29016 79.0688 6.64711 79.0688 12.1949C79.0688 17.7427 82.5752 22.6524 87.9334 22.5061C93.2916 22.3598 95.8455 17.1046 96.0467 16.4096C96.2478 15.7146 96.601 15.8162 96.601 16.3608V20.4252C94.3961 22.0103 90.2409 23.6969 87.0342 23.6969C83.8316 23.6969 74.967 21.7136 74.967 12.3941C74.967 3.07051 83.38 0.843262 86.7878 0.843262C90.1916 0.843262 93.6488 1.68458 95.751 3.07051V7.43559H95.7469Z" fill="#718087"/>
</svg>
