<svg width="76" height="17" viewBox="0 0 76 17" fill="none" xmlns="http://www.w3.org/2000/svg">
<path d="M12.776 0.343262H15.6604V9.6956C15.6604 14.6162 12.5848 16.3433 8.12271 16.3433C3.67659 16.3433 0.600952 14.6162 0.600952 9.6956V0.718007C0.600952 0.457315 0.72844 0.343262 0.983415 0.343262H3.86782V9.54896C3.86782 12.498 5.14269 13.72 8.12271 13.72C11.1187 13.72 12.3935 12.498 12.3935 9.54896V0.718007C12.3935 0.457315 12.521 0.343262 12.776 0.343262ZM45.4287 2.90131V6.84428H52.7274C52.8549 6.84428 52.9027 6.90945 52.8549 7.0398L52.0581 9.06017C51.9784 9.23939 51.8668 9.32086 51.6278 9.32086H47.341C45.9387 9.32086 45.4287 9.76078 45.4287 10.7221V13.5082H55.309C55.4365 13.5082 55.4843 13.5734 55.4365 13.7038L54.6078 15.8056C54.5281 15.9848 54.4166 16.0663 54.1776 16.0663H43.3571C42.5284 16.0663 42.2097 15.773 42.2097 15.1376V1.43491C42.2097 0.669127 42.624 0.343262 43.7077 0.343262H55.309C55.4365 0.343262 55.4843 0.408435 55.4365 0.522488L54.6078 2.64061C54.5281 2.81984 54.4166 2.90131 54.1776 2.90131H45.4287ZM36.2656 11.716C36.2656 14.8606 34.0983 16.0663 31.0545 16.0663H22.9909C22.1463 16.0663 21.8436 15.773 21.8436 15.1376V1.43491C21.8436 0.669127 22.2419 0.343262 23.3415 0.343262H29.8912C32.7597 0.343262 35.5325 0.848353 35.5325 4.33512C35.5325 5.8341 35.0066 7.10497 33.7477 7.773C35.4847 8.2455 36.2656 9.84224 36.2656 11.716ZM25.0148 6.89316H30.1302C31.8194 6.89316 32.2975 6.22514 32.2975 4.8565C32.2975 3.48786 31.8194 2.83613 30.1302 2.83613H25.0148V6.89316ZM33.0306 11.4227C33.0306 9.97259 32.5366 9.25569 30.7199 9.25569H26.9431C25.5407 9.25569 25.0148 9.6956 25.0148 10.6569V13.5734H30.7199C32.5366 13.5734 33.0306 12.8565 33.0306 11.4227ZM75.4202 16.0663H72.4879C72.2489 16.0663 72.1533 15.9685 72.0577 15.8056L68.9502 10.0703H66.0976C64.6953 10.0703 64.1694 10.5103 64.1694 11.4716V16.0663H61.3647C61.1097 16.0663 60.9822 15.9359 60.9822 15.6915V1.43491C60.9822 0.669127 61.3965 0.343262 62.4802 0.343262H69.0617C72.9023 0.343262 75.213 1.36974 75.213 5.18237C75.213 8.13145 73.8266 9.28827 72.1055 9.74448L75.5636 15.7893C75.6273 15.8871 75.6273 16.0663 75.4202 16.0663ZM71.978 5.24754C71.978 3.6508 71.5477 2.86872 69.5398 2.86872H64.1694V7.62636H69.5398C71.5477 7.62636 71.978 6.86057 71.978 5.24754Z" fill="#718087"/>
</svg>
